# xmcd
#
# Track frame offsets:
# 150
# 14556
# 23347
# 32754
# 43112
# 52937
# 62152
# 78880
# 91226
# 106009
# 119681
# 134733
#
# Disc length: 1963 seconds
#
#
# Revision: 0
# Processed by: cddbd v1.5.2PL0 Copyright (c) Steve Scherf et al.
# Submitted via: FreeRIP 2.945 
#
DISCID=9507a90c
DTITLE=Frank Sinatra-frank e tony - Frank e Tony
DYEAR=1900
DGENRE=Blues
TTITLE0=as time goes by
TTITLE1=i`ve got under my skin
TTITLE2=chicago
TTITLE3=dancing in the dark
TTITLE4=blue moon
TTITLE5=all the way
TTITLE6=my romance
TTITLE7=come fly with me
TTITLE8=manhattan
TTITLE9=the lady is a tramp
TTITLE10=have you met miss jones
TTITLE11=i get a kick out of you
EXTD=
EXTT0=
EXTT1=
EXTT2=
EXTT3=
EXTT4=
EXTT5=
EXTT6=
EXTT7=
EXTT8=
EXTT9=
EXTT10=
EXTT11=
PLAYORDER=
